<mxfile host="app.diagrams.net" agent="Mozilla/5.0 (Windows NT 10.0; Win64; x64) AppleWebKit/537.36 (KHTML, like Gecko) Chrome/126.0.0.0 YaBrowser/24.7.0.0 Safari/537.36" version="24.7.16">
  <diagram name="Страница — 1" id="wwdKpvB1VI30a9P4s1hF">
    <mxGraphModel dx="2140" dy="1848" grid="1" gridSize="10" guides="1" tooltips="1" connect="1" arrows="1" fold="1" page="1" pageScale="1" pageWidth="827" pageHeight="1169" math="0" shadow="0">
      <root>
        <mxCell id="0" />
        <mxCell id="1" parent="0" />
        <mxCell id="7eC2LCejFtEysqXEd_CO-87" style="edgeStyle=orthogonalEdgeStyle;rounded=0;orthogonalLoop=1;jettySize=auto;html=1;exitX=0.5;exitY=1;exitDx=0;exitDy=0;entryX=0.5;entryY=0;entryDx=0;entryDy=0;" parent="1" source="7eC2LCejFtEysqXEd_CO-1" target="7eC2LCejFtEysqXEd_CO-84" edge="1">
          <mxGeometry relative="1" as="geometry" />
        </mxCell>
        <mxCell id="7eC2LCejFtEysqXEd_CO-92" style="edgeStyle=orthogonalEdgeStyle;rounded=0;orthogonalLoop=1;jettySize=auto;html=1;exitX=0.5;exitY=1;exitDx=0;exitDy=0;entryX=1;entryY=0.5;entryDx=0;entryDy=0;" parent="1" source="7eC2LCejFtEysqXEd_CO-1" target="7eC2LCejFtEysqXEd_CO-85" edge="1">
          <mxGeometry relative="1" as="geometry">
            <Array as="points">
              <mxPoint x="370" y="280" />
              <mxPoint x="480" y="280" />
              <mxPoint x="480" y="420" />
            </Array>
          </mxGeometry>
        </mxCell>
        <mxCell id="7eC2LCejFtEysqXEd_CO-94" style="edgeStyle=orthogonalEdgeStyle;rounded=0;orthogonalLoop=1;jettySize=auto;html=1;exitX=0.5;exitY=1;exitDx=0;exitDy=0;entryX=1;entryY=0.5;entryDx=0;entryDy=0;" parent="1" source="7eC2LCejFtEysqXEd_CO-1" target="7eC2LCejFtEysqXEd_CO-86" edge="1">
          <mxGeometry relative="1" as="geometry">
            <Array as="points">
              <mxPoint x="370" y="280" />
              <mxPoint x="480" y="280" />
              <mxPoint x="480" y="500" />
            </Array>
          </mxGeometry>
        </mxCell>
        <mxCell id="7eC2LCejFtEysqXEd_CO-1" value="Паттерны" style="rounded=0;whiteSpace=wrap;html=1;" parent="1" vertex="1">
          <mxGeometry x="280" y="40" width="180" height="60" as="geometry" />
        </mxCell>
        <mxCell id="Tb6W4LsNfKhpJKF0Waa3-11" style="edgeStyle=orthogonalEdgeStyle;rounded=0;orthogonalLoop=1;jettySize=auto;html=1;exitX=1;exitY=0.5;exitDx=0;exitDy=0;entryX=0;entryY=0.5;entryDx=0;entryDy=0;" edge="1" parent="1" source="7eC2LCejFtEysqXEd_CO-2" target="Tb6W4LsNfKhpJKF0Waa3-9">
          <mxGeometry relative="1" as="geometry">
            <Array as="points">
              <mxPoint x="60" y="170" />
              <mxPoint x="60" y="-340" />
            </Array>
          </mxGeometry>
        </mxCell>
        <mxCell id="7eC2LCejFtEysqXEd_CO-2" value="Адаптер" style="rounded=0;whiteSpace=wrap;html=1;fillColor=#dae8fc;strokeColor=#6c8ebf;" parent="1" vertex="1">
          <mxGeometry x="-250" y="140" width="180" height="60" as="geometry" />
        </mxCell>
        <mxCell id="7eC2LCejFtEysqXEd_CO-44" style="edgeStyle=orthogonalEdgeStyle;rounded=0;orthogonalLoop=1;jettySize=auto;html=1;exitX=0;exitY=0.5;exitDx=0;exitDy=0;entryX=1;entryY=0.5;entryDx=0;entryDy=0;" parent="1" source="7eC2LCejFtEysqXEd_CO-3" target="7eC2LCejFtEysqXEd_CO-11" edge="1">
          <mxGeometry relative="1" as="geometry" />
        </mxCell>
        <mxCell id="7eC2LCejFtEysqXEd_CO-45" style="edgeStyle=orthogonalEdgeStyle;rounded=0;orthogonalLoop=1;jettySize=auto;html=1;exitX=0;exitY=0.5;exitDx=0;exitDy=0;entryX=1;entryY=0.5;entryDx=0;entryDy=0;" parent="1" source="7eC2LCejFtEysqXEd_CO-3" target="7eC2LCejFtEysqXEd_CO-2" edge="1">
          <mxGeometry relative="1" as="geometry" />
        </mxCell>
        <mxCell id="7eC2LCejFtEysqXEd_CO-46" style="edgeStyle=orthogonalEdgeStyle;rounded=0;orthogonalLoop=1;jettySize=auto;html=1;exitX=0;exitY=0.5;exitDx=0;exitDy=0;entryX=1;entryY=0.5;entryDx=0;entryDy=0;" parent="1" source="7eC2LCejFtEysqXEd_CO-3" target="7eC2LCejFtEysqXEd_CO-12" edge="1">
          <mxGeometry relative="1" as="geometry" />
        </mxCell>
        <mxCell id="7eC2LCejFtEysqXEd_CO-47" style="edgeStyle=orthogonalEdgeStyle;rounded=0;orthogonalLoop=1;jettySize=auto;html=1;exitX=0;exitY=1;exitDx=0;exitDy=0;entryX=1;entryY=0.5;entryDx=0;entryDy=0;" parent="1" source="7eC2LCejFtEysqXEd_CO-3" target="7eC2LCejFtEysqXEd_CO-19" edge="1">
          <mxGeometry relative="1" as="geometry" />
        </mxCell>
        <mxCell id="7eC2LCejFtEysqXEd_CO-48" style="edgeStyle=orthogonalEdgeStyle;rounded=0;orthogonalLoop=1;jettySize=auto;html=1;exitX=0;exitY=1;exitDx=0;exitDy=0;entryX=1;entryY=0.5;entryDx=0;entryDy=0;" parent="1" source="7eC2LCejFtEysqXEd_CO-3" target="7eC2LCejFtEysqXEd_CO-21" edge="1">
          <mxGeometry relative="1" as="geometry" />
        </mxCell>
        <mxCell id="7eC2LCejFtEysqXEd_CO-49" style="edgeStyle=orthogonalEdgeStyle;rounded=0;orthogonalLoop=1;jettySize=auto;html=1;exitX=0;exitY=1;exitDx=0;exitDy=0;entryX=1;entryY=0.5;entryDx=0;entryDy=0;" parent="1" source="7eC2LCejFtEysqXEd_CO-3" target="7eC2LCejFtEysqXEd_CO-20" edge="1">
          <mxGeometry relative="1" as="geometry" />
        </mxCell>
        <mxCell id="7eC2LCejFtEysqXEd_CO-53" style="edgeStyle=orthogonalEdgeStyle;rounded=0;orthogonalLoop=1;jettySize=auto;html=1;exitX=0.25;exitY=1;exitDx=0;exitDy=0;entryX=0.25;entryY=0;entryDx=0;entryDy=0;" parent="1" source="7eC2LCejFtEysqXEd_CO-3" target="7eC2LCejFtEysqXEd_CO-38" edge="1">
          <mxGeometry relative="1" as="geometry">
            <Array as="points">
              <mxPoint x="205" y="400" />
              <mxPoint x="35" y="400" />
            </Array>
          </mxGeometry>
        </mxCell>
        <mxCell id="7eC2LCejFtEysqXEd_CO-54" style="edgeStyle=orthogonalEdgeStyle;rounded=0;orthogonalLoop=1;jettySize=auto;html=1;exitX=0.25;exitY=1;exitDx=0;exitDy=0;entryX=1;entryY=0;entryDx=0;entryDy=0;" parent="1" source="7eC2LCejFtEysqXEd_CO-3" target="7eC2LCejFtEysqXEd_CO-37" edge="1">
          <mxGeometry relative="1" as="geometry">
            <Array as="points">
              <mxPoint x="205" y="400" />
              <mxPoint x="-30" y="400" />
            </Array>
          </mxGeometry>
        </mxCell>
        <mxCell id="7eC2LCejFtEysqXEd_CO-55" style="edgeStyle=orthogonalEdgeStyle;rounded=0;orthogonalLoop=1;jettySize=auto;html=1;exitX=0.25;exitY=1;exitDx=0;exitDy=0;entryX=0.5;entryY=0;entryDx=0;entryDy=0;" parent="1" source="7eC2LCejFtEysqXEd_CO-3" target="7eC2LCejFtEysqXEd_CO-36" edge="1">
          <mxGeometry relative="1" as="geometry">
            <Array as="points">
              <mxPoint x="205" y="440" />
              <mxPoint x="-20" y="440" />
            </Array>
          </mxGeometry>
        </mxCell>
        <mxCell id="7eC2LCejFtEysqXEd_CO-96" style="edgeStyle=orthogonalEdgeStyle;rounded=0;orthogonalLoop=1;jettySize=auto;html=1;exitX=0.5;exitY=1;exitDx=0;exitDy=0;entryX=0;entryY=0.5;entryDx=0;entryDy=0;" parent="1" source="7eC2LCejFtEysqXEd_CO-3" target="7eC2LCejFtEysqXEd_CO-85" edge="1">
          <mxGeometry relative="1" as="geometry" />
        </mxCell>
        <mxCell id="7eC2LCejFtEysqXEd_CO-97" style="edgeStyle=orthogonalEdgeStyle;rounded=0;orthogonalLoop=1;jettySize=auto;html=1;exitX=0.5;exitY=1;exitDx=0;exitDy=0;entryX=0;entryY=0.5;entryDx=0;entryDy=0;" parent="1" source="7eC2LCejFtEysqXEd_CO-3" target="7eC2LCejFtEysqXEd_CO-84" edge="1">
          <mxGeometry relative="1" as="geometry" />
        </mxCell>
        <mxCell id="7eC2LCejFtEysqXEd_CO-3" value="Цитадель" style="rounded=0;whiteSpace=wrap;html=1;fillColor=#f5f5f5;strokeColor=#666666;fontColor=#333333;" parent="1" vertex="1">
          <mxGeometry x="160" y="160" width="180" height="60" as="geometry" />
        </mxCell>
        <mxCell id="7eC2LCejFtEysqXEd_CO-65" style="edgeStyle=orthogonalEdgeStyle;rounded=0;orthogonalLoop=1;jettySize=auto;html=1;exitX=1;exitY=0.5;exitDx=0;exitDy=0;entryX=0;entryY=0.5;entryDx=0;entryDy=0;" parent="1" source="7eC2LCejFtEysqXEd_CO-4" target="7eC2LCejFtEysqXEd_CO-58" edge="1">
          <mxGeometry relative="1" as="geometry" />
        </mxCell>
        <mxCell id="7eC2LCejFtEysqXEd_CO-66" style="edgeStyle=orthogonalEdgeStyle;rounded=0;orthogonalLoop=1;jettySize=auto;html=1;exitX=1;exitY=0.5;exitDx=0;exitDy=0;entryX=0;entryY=0.5;entryDx=0;entryDy=0;" parent="1" source="7eC2LCejFtEysqXEd_CO-4" target="7eC2LCejFtEysqXEd_CO-57" edge="1">
          <mxGeometry relative="1" as="geometry" />
        </mxCell>
        <mxCell id="7eC2LCejFtEysqXEd_CO-67" style="edgeStyle=orthogonalEdgeStyle;rounded=0;orthogonalLoop=1;jettySize=auto;html=1;exitX=1;exitY=0.5;exitDx=0;exitDy=0;entryX=0;entryY=0.5;entryDx=0;entryDy=0;" parent="1" source="7eC2LCejFtEysqXEd_CO-4" target="7eC2LCejFtEysqXEd_CO-56" edge="1">
          <mxGeometry relative="1" as="geometry" />
        </mxCell>
        <mxCell id="7eC2LCejFtEysqXEd_CO-68" style="edgeStyle=orthogonalEdgeStyle;rounded=0;orthogonalLoop=1;jettySize=auto;html=1;exitX=1;exitY=0.5;exitDx=0;exitDy=0;entryX=0;entryY=0.5;entryDx=0;entryDy=0;" parent="1" source="7eC2LCejFtEysqXEd_CO-4" target="7eC2LCejFtEysqXEd_CO-59" edge="1">
          <mxGeometry relative="1" as="geometry" />
        </mxCell>
        <mxCell id="7eC2LCejFtEysqXEd_CO-73" style="edgeStyle=orthogonalEdgeStyle;rounded=0;orthogonalLoop=1;jettySize=auto;html=1;exitX=1;exitY=1;exitDx=0;exitDy=0;entryX=0;entryY=0.5;entryDx=0;entryDy=0;" parent="1" source="7eC2LCejFtEysqXEd_CO-4" target="7eC2LCejFtEysqXEd_CO-70" edge="1">
          <mxGeometry relative="1" as="geometry" />
        </mxCell>
        <mxCell id="7eC2LCejFtEysqXEd_CO-74" style="edgeStyle=orthogonalEdgeStyle;rounded=0;orthogonalLoop=1;jettySize=auto;html=1;exitX=1;exitY=1;exitDx=0;exitDy=0;entryX=0;entryY=0.5;entryDx=0;entryDy=0;" parent="1" source="7eC2LCejFtEysqXEd_CO-4" target="7eC2LCejFtEysqXEd_CO-71" edge="1">
          <mxGeometry relative="1" as="geometry" />
        </mxCell>
        <mxCell id="7eC2LCejFtEysqXEd_CO-75" style="edgeStyle=orthogonalEdgeStyle;rounded=0;orthogonalLoop=1;jettySize=auto;html=1;exitX=1;exitY=1;exitDx=0;exitDy=0;entryX=0;entryY=0.5;entryDx=0;entryDy=0;" parent="1" source="7eC2LCejFtEysqXEd_CO-4" target="7eC2LCejFtEysqXEd_CO-72" edge="1">
          <mxGeometry relative="1" as="geometry" />
        </mxCell>
        <mxCell id="7eC2LCejFtEysqXEd_CO-80" style="edgeStyle=orthogonalEdgeStyle;rounded=0;orthogonalLoop=1;jettySize=auto;html=1;exitX=0.75;exitY=1;exitDx=0;exitDy=0;entryX=0.5;entryY=0;entryDx=0;entryDy=0;" parent="1" source="7eC2LCejFtEysqXEd_CO-4" target="7eC2LCejFtEysqXEd_CO-79" edge="1">
          <mxGeometry relative="1" as="geometry">
            <Array as="points">
              <mxPoint x="549" y="500" />
              <mxPoint x="700" y="500" />
            </Array>
          </mxGeometry>
        </mxCell>
        <mxCell id="7eC2LCejFtEysqXEd_CO-81" style="edgeStyle=orthogonalEdgeStyle;rounded=0;orthogonalLoop=1;jettySize=auto;html=1;exitX=0.75;exitY=1;exitDx=0;exitDy=0;entryX=0.25;entryY=0;entryDx=0;entryDy=0;" parent="1" source="7eC2LCejFtEysqXEd_CO-4" target="7eC2LCejFtEysqXEd_CO-78" edge="1">
          <mxGeometry relative="1" as="geometry">
            <Array as="points">
              <mxPoint x="549" y="500" />
              <mxPoint x="855" y="500" />
            </Array>
          </mxGeometry>
        </mxCell>
        <mxCell id="7eC2LCejFtEysqXEd_CO-82" style="edgeStyle=orthogonalEdgeStyle;rounded=0;orthogonalLoop=1;jettySize=auto;html=1;exitX=0.75;exitY=1;exitDx=0;exitDy=0;entryX=0.5;entryY=0;entryDx=0;entryDy=0;" parent="1" source="7eC2LCejFtEysqXEd_CO-4" target="7eC2LCejFtEysqXEd_CO-77" edge="1">
          <mxGeometry relative="1" as="geometry">
            <Array as="points">
              <mxPoint x="549" y="500" />
              <mxPoint x="805" y="500" />
            </Array>
          </mxGeometry>
        </mxCell>
        <mxCell id="7eC2LCejFtEysqXEd_CO-95" style="edgeStyle=orthogonalEdgeStyle;rounded=0;orthogonalLoop=1;jettySize=auto;html=1;exitX=0.5;exitY=1;exitDx=0;exitDy=0;entryX=1;entryY=0.5;entryDx=0;entryDy=0;" parent="1" source="7eC2LCejFtEysqXEd_CO-4" target="7eC2LCejFtEysqXEd_CO-86" edge="1">
          <mxGeometry relative="1" as="geometry" />
        </mxCell>
        <mxCell id="7eC2LCejFtEysqXEd_CO-98" style="edgeStyle=orthogonalEdgeStyle;rounded=0;orthogonalLoop=1;jettySize=auto;html=1;exitX=0.5;exitY=1;exitDx=0;exitDy=0;entryX=1;entryY=0.5;entryDx=0;entryDy=0;" parent="1" source="7eC2LCejFtEysqXEd_CO-4" target="7eC2LCejFtEysqXEd_CO-84" edge="1">
          <mxGeometry relative="1" as="geometry" />
        </mxCell>
        <mxCell id="7eC2LCejFtEysqXEd_CO-4" value="Чистая архитектура" style="rounded=0;whiteSpace=wrap;html=1;fillColor=#f5f5f5;strokeColor=#666666;fontColor=#333333;" parent="1" vertex="1">
          <mxGeometry x="414" y="160" width="180" height="60" as="geometry" />
        </mxCell>
        <mxCell id="7eC2LCejFtEysqXEd_CO-6" value="" style="endArrow=classic;html=1;rounded=0;exitX=0.25;exitY=1;exitDx=0;exitDy=0;entryX=0.5;entryY=0;entryDx=0;entryDy=0;" parent="1" source="7eC2LCejFtEysqXEd_CO-1" target="7eC2LCejFtEysqXEd_CO-3" edge="1">
          <mxGeometry width="50" height="50" relative="1" as="geometry">
            <mxPoint x="170" y="140" as="sourcePoint" />
            <mxPoint x="220" y="90" as="targetPoint" />
          </mxGeometry>
        </mxCell>
        <mxCell id="7eC2LCejFtEysqXEd_CO-7" value="" style="endArrow=classic;html=1;rounded=0;exitX=0.75;exitY=1;exitDx=0;exitDy=0;entryX=0.5;entryY=0;entryDx=0;entryDy=0;" parent="1" source="7eC2LCejFtEysqXEd_CO-1" target="7eC2LCejFtEysqXEd_CO-4" edge="1">
          <mxGeometry width="50" height="50" relative="1" as="geometry">
            <mxPoint x="570" y="120" as="sourcePoint" />
            <mxPoint x="620" y="70" as="targetPoint" />
          </mxGeometry>
        </mxCell>
        <mxCell id="7eC2LCejFtEysqXEd_CO-8" value="Какой есть" style="text;html=1;align=center;verticalAlign=middle;resizable=0;points=[];autosize=1;strokeColor=none;fillColor=none;rounded=0;" parent="1" vertex="1">
          <mxGeometry x="210" y="108" width="80" height="30" as="geometry" />
        </mxCell>
        <mxCell id="7eC2LCejFtEysqXEd_CO-9" value="Какой есть" style="text;html=1;align=center;verticalAlign=middle;resizable=0;points=[];autosize=1;strokeColor=none;fillColor=none;rounded=0;" parent="1" vertex="1">
          <mxGeometry x="464" y="108" width="80" height="30" as="geometry" />
        </mxCell>
        <mxCell id="SSHobprJxzw41ajvplGZ-7" style="edgeStyle=orthogonalEdgeStyle;rounded=0;orthogonalLoop=1;jettySize=auto;html=1;exitX=0;exitY=0.5;exitDx=0;exitDy=0;entryX=1;entryY=0.5;entryDx=0;entryDy=0;" parent="1" source="7eC2LCejFtEysqXEd_CO-11" target="SSHobprJxzw41ajvplGZ-6" edge="1">
          <mxGeometry relative="1" as="geometry" />
        </mxCell>
        <mxCell id="Tb6W4LsNfKhpJKF0Waa3-7" style="edgeStyle=orthogonalEdgeStyle;rounded=0;orthogonalLoop=1;jettySize=auto;html=1;exitX=1;exitY=0.5;exitDx=0;exitDy=0;entryX=0;entryY=0.5;entryDx=0;entryDy=0;" edge="1" parent="1" source="7eC2LCejFtEysqXEd_CO-11" target="Tb6W4LsNfKhpJKF0Waa3-6">
          <mxGeometry relative="1" as="geometry" />
        </mxCell>
        <mxCell id="7eC2LCejFtEysqXEd_CO-11" value="Защитный барьер" style="rounded=0;whiteSpace=wrap;html=1;fillColor=#dae8fc;strokeColor=#6c8ebf;" parent="1" vertex="1">
          <mxGeometry x="-250" y="60" width="180" height="60" as="geometry" />
        </mxCell>
        <mxCell id="SSHobprJxzw41ajvplGZ-2" style="edgeStyle=orthogonalEdgeStyle;rounded=0;orthogonalLoop=1;jettySize=auto;html=1;exitX=0;exitY=0.5;exitDx=0;exitDy=0;entryX=1;entryY=0.5;entryDx=0;entryDy=0;" parent="1" source="7eC2LCejFtEysqXEd_CO-12" target="SSHobprJxzw41ajvplGZ-1" edge="1">
          <mxGeometry relative="1" as="geometry" />
        </mxCell>
        <mxCell id="Tb6W4LsNfKhpJKF0Waa3-3" style="edgeStyle=orthogonalEdgeStyle;rounded=0;orthogonalLoop=1;jettySize=auto;html=1;exitX=0.5;exitY=0;exitDx=0;exitDy=0;entryX=0;entryY=0.5;entryDx=0;entryDy=0;" edge="1" parent="1" source="7eC2LCejFtEysqXEd_CO-12" target="Tb6W4LsNfKhpJKF0Waa3-1">
          <mxGeometry relative="1" as="geometry" />
        </mxCell>
        <mxCell id="7eC2LCejFtEysqXEd_CO-12" value="Центральная логика" style="rounded=0;whiteSpace=wrap;html=1;fillColor=#dae8fc;strokeColor=#6c8ebf;" parent="1" vertex="1">
          <mxGeometry x="-250" y="-20" width="180" height="60" as="geometry" />
        </mxCell>
        <mxCell id="7eC2LCejFtEysqXEd_CO-16" value="Составляющие" style="text;html=1;align=center;verticalAlign=middle;resizable=0;points=[];autosize=1;strokeColor=none;fillColor=none;rotation=0;rounded=0;" parent="1" vertex="1">
          <mxGeometry x="50" y="155" width="110" height="30" as="geometry" />
        </mxCell>
        <mxCell id="SSHobprJxzw41ajvplGZ-4" style="edgeStyle=orthogonalEdgeStyle;rounded=0;orthogonalLoop=1;jettySize=auto;html=1;exitX=0;exitY=0.5;exitDx=0;exitDy=0;entryX=1;entryY=0.5;entryDx=0;entryDy=0;" parent="1" source="7eC2LCejFtEysqXEd_CO-19" target="SSHobprJxzw41ajvplGZ-1" edge="1">
          <mxGeometry relative="1" as="geometry" />
        </mxCell>
        <mxCell id="Tb6W4LsNfKhpJKF0Waa3-18" style="edgeStyle=orthogonalEdgeStyle;rounded=0;orthogonalLoop=1;jettySize=auto;html=1;exitX=0;exitY=0.5;exitDx=0;exitDy=0;entryX=0;entryY=0.5;entryDx=0;entryDy=0;" edge="1" parent="1" source="7eC2LCejFtEysqXEd_CO-19" target="Tb6W4LsNfKhpJKF0Waa3-16">
          <mxGeometry relative="1" as="geometry" />
        </mxCell>
        <mxCell id="7eC2LCejFtEysqXEd_CO-19" value="Централизация управления" style="rounded=0;whiteSpace=wrap;html=1;fillColor=#d5e8d4;strokeColor=#82b366;" parent="1" vertex="1">
          <mxGeometry x="-270" y="230" width="180" height="60" as="geometry" />
        </mxCell>
        <mxCell id="SSHobprJxzw41ajvplGZ-10" style="edgeStyle=orthogonalEdgeStyle;rounded=0;orthogonalLoop=1;jettySize=auto;html=1;exitX=0;exitY=0.5;exitDx=0;exitDy=0;entryX=1;entryY=0.5;entryDx=0;entryDy=0;" parent="1" source="7eC2LCejFtEysqXEd_CO-20" target="SSHobprJxzw41ajvplGZ-1" edge="1">
          <mxGeometry relative="1" as="geometry">
            <Array as="points">
              <mxPoint x="-400" y="420" />
              <mxPoint x="-400" y="10" />
            </Array>
          </mxGeometry>
        </mxCell>
        <mxCell id="Tb6W4LsNfKhpJKF0Waa3-26" style="edgeStyle=orthogonalEdgeStyle;rounded=0;orthogonalLoop=1;jettySize=auto;html=1;exitX=0;exitY=0.5;exitDx=0;exitDy=0;entryX=0;entryY=0.5;entryDx=0;entryDy=0;" edge="1" parent="1" source="7eC2LCejFtEysqXEd_CO-20" target="Tb6W4LsNfKhpJKF0Waa3-23">
          <mxGeometry relative="1" as="geometry" />
        </mxCell>
        <mxCell id="7eC2LCejFtEysqXEd_CO-20" value="Контроль над состоянием" style="rounded=0;whiteSpace=wrap;html=1;fillColor=#d5e8d4;strokeColor=#82b366;" parent="1" vertex="1">
          <mxGeometry x="-270" y="390" width="180" height="60" as="geometry" />
        </mxCell>
        <mxCell id="SSHobprJxzw41ajvplGZ-8" style="edgeStyle=orthogonalEdgeStyle;rounded=0;orthogonalLoop=1;jettySize=auto;html=1;exitX=0;exitY=0.5;exitDx=0;exitDy=0;entryX=1;entryY=0.5;entryDx=0;entryDy=0;" parent="1" source="7eC2LCejFtEysqXEd_CO-21" target="SSHobprJxzw41ajvplGZ-6" edge="1">
          <mxGeometry relative="1" as="geometry">
            <Array as="points">
              <mxPoint x="-390" y="340" />
              <mxPoint x="-390" y="220" />
            </Array>
          </mxGeometry>
        </mxCell>
        <mxCell id="Tb6W4LsNfKhpJKF0Waa3-21" style="edgeStyle=orthogonalEdgeStyle;rounded=0;orthogonalLoop=1;jettySize=auto;html=1;exitX=0;exitY=0.5;exitDx=0;exitDy=0;entryX=0;entryY=0.5;entryDx=0;entryDy=0;" edge="1" parent="1" source="7eC2LCejFtEysqXEd_CO-21" target="Tb6W4LsNfKhpJKF0Waa3-20">
          <mxGeometry relative="1" as="geometry">
            <Array as="points">
              <mxPoint x="-270" y="350" />
              <mxPoint x="-310" y="350" />
              <mxPoint x="-310" y="1020" />
            </Array>
          </mxGeometry>
        </mxCell>
        <mxCell id="7eC2LCejFtEysqXEd_CO-21" value="Защита внутренней логики" style="rounded=0;whiteSpace=wrap;html=1;fillColor=#d5e8d4;strokeColor=#82b366;" parent="1" vertex="1">
          <mxGeometry x="-270" y="310" width="180" height="60" as="geometry" />
        </mxCell>
        <mxCell id="7eC2LCejFtEysqXEd_CO-27" value="Для чего нужен" style="text;html=1;align=center;verticalAlign=middle;resizable=0;points=[];autosize=1;strokeColor=none;fillColor=none;rotation=0;rounded=0;" parent="1" vertex="1">
          <mxGeometry x="50" y="230" width="110" height="30" as="geometry" />
        </mxCell>
        <mxCell id="SSHobprJxzw41ajvplGZ-20" style="edgeStyle=orthogonalEdgeStyle;rounded=0;orthogonalLoop=1;jettySize=auto;html=1;exitX=0.5;exitY=1;exitDx=0;exitDy=0;entryX=0;entryY=0.5;entryDx=0;entryDy=0;" parent="1" source="7eC2LCejFtEysqXEd_CO-36" target="SSHobprJxzw41ajvplGZ-19" edge="1">
          <mxGeometry relative="1" as="geometry" />
        </mxCell>
        <mxCell id="7eC2LCejFtEysqXEd_CO-36" value="Системы с критичной логикой" style="rounded=0;whiteSpace=wrap;html=1;fillColor=#fff2cc;strokeColor=#d6b656;" parent="1" vertex="1">
          <mxGeometry x="-110" y="615" width="180" height="60" as="geometry" />
        </mxCell>
        <mxCell id="7eC2LCejFtEysqXEd_CO-37" value="Финансовые системы" style="rounded=0;whiteSpace=wrap;html=1;fillColor=#fff2cc;strokeColor=#d6b656;" parent="1" vertex="1">
          <mxGeometry x="-210" y="540" width="180" height="60" as="geometry" />
        </mxCell>
        <mxCell id="SSHobprJxzw41ajvplGZ-24" style="edgeStyle=orthogonalEdgeStyle;rounded=0;orthogonalLoop=1;jettySize=auto;html=1;exitX=1;exitY=0.5;exitDx=0;exitDy=0;entryX=0;entryY=0.5;entryDx=0;entryDy=0;" parent="1" source="7eC2LCejFtEysqXEd_CO-38" target="SSHobprJxzw41ajvplGZ-23" edge="1">
          <mxGeometry relative="1" as="geometry" />
        </mxCell>
        <mxCell id="7eC2LCejFtEysqXEd_CO-38" value="Безопасные веб-приложения" style="rounded=0;whiteSpace=wrap;html=1;fillColor=#fff2cc;strokeColor=#d6b656;" parent="1" vertex="1">
          <mxGeometry x="-10" y="540" width="180" height="60" as="geometry" />
        </mxCell>
        <mxCell id="7eC2LCejFtEysqXEd_CO-43" value="Примеры применения" style="text;html=1;align=center;verticalAlign=middle;resizable=0;points=[];autosize=1;strokeColor=none;fillColor=none;rounded=0;" parent="1" vertex="1">
          <mxGeometry x="50" y="480" width="150" height="30" as="geometry" />
        </mxCell>
        <mxCell id="Tb6W4LsNfKhpJKF0Waa3-15" style="edgeStyle=orthogonalEdgeStyle;rounded=0;orthogonalLoop=1;jettySize=auto;html=1;exitX=0;exitY=0.5;exitDx=0;exitDy=0;entryX=0.5;entryY=1;entryDx=0;entryDy=0;" edge="1" parent="1" source="7eC2LCejFtEysqXEd_CO-56" target="Tb6W4LsNfKhpJKF0Waa3-13">
          <mxGeometry relative="1" as="geometry" />
        </mxCell>
        <mxCell id="7eC2LCejFtEysqXEd_CO-56" value="Инфраструктура" style="rounded=0;whiteSpace=wrap;html=1;fillColor=#dae8fc;strokeColor=#6c8ebf;" parent="1" vertex="1">
          <mxGeometry x="910" y="100" width="180" height="60" as="geometry" />
        </mxCell>
        <mxCell id="SSHobprJxzw41ajvplGZ-13" style="edgeStyle=orthogonalEdgeStyle;rounded=0;orthogonalLoop=1;jettySize=auto;html=1;exitX=1;exitY=0.5;exitDx=0;exitDy=0;entryX=0;entryY=0.5;entryDx=0;entryDy=0;" parent="1" source="7eC2LCejFtEysqXEd_CO-57" target="SSHobprJxzw41ajvplGZ-11" edge="1">
          <mxGeometry relative="1" as="geometry" />
        </mxCell>
        <mxCell id="Tb6W4LsNfKhpJKF0Waa3-8" style="edgeStyle=orthogonalEdgeStyle;rounded=0;orthogonalLoop=1;jettySize=auto;html=1;exitX=0;exitY=0.5;exitDx=0;exitDy=0;entryX=1;entryY=0.5;entryDx=0;entryDy=0;" edge="1" parent="1" source="7eC2LCejFtEysqXEd_CO-57" target="Tb6W4LsNfKhpJKF0Waa3-6">
          <mxGeometry relative="1" as="geometry" />
        </mxCell>
        <mxCell id="7eC2LCejFtEysqXEd_CO-57" value="Внешние слои" style="rounded=0;whiteSpace=wrap;html=1;fillColor=#dae8fc;strokeColor=#6c8ebf;" parent="1" vertex="1">
          <mxGeometry x="910" y="20" width="180" height="60" as="geometry" />
        </mxCell>
        <mxCell id="SSHobprJxzw41ajvplGZ-12" style="edgeStyle=orthogonalEdgeStyle;rounded=0;orthogonalLoop=1;jettySize=auto;html=1;exitX=1;exitY=0.5;exitDx=0;exitDy=0;entryX=0;entryY=0.5;entryDx=0;entryDy=0;" parent="1" source="7eC2LCejFtEysqXEd_CO-58" target="SSHobprJxzw41ajvplGZ-11" edge="1">
          <mxGeometry relative="1" as="geometry" />
        </mxCell>
        <mxCell id="Tb6W4LsNfKhpJKF0Waa3-4" style="edgeStyle=orthogonalEdgeStyle;rounded=0;orthogonalLoop=1;jettySize=auto;html=1;exitX=0.5;exitY=0;exitDx=0;exitDy=0;entryX=1;entryY=0.5;entryDx=0;entryDy=0;" edge="1" parent="1" source="7eC2LCejFtEysqXEd_CO-58" target="Tb6W4LsNfKhpJKF0Waa3-1">
          <mxGeometry relative="1" as="geometry" />
        </mxCell>
        <mxCell id="7eC2LCejFtEysqXEd_CO-58" value="Внутренние слои" style="rounded=0;whiteSpace=wrap;html=1;fillColor=#dae8fc;strokeColor=#6c8ebf;" parent="1" vertex="1">
          <mxGeometry x="910" y="-60" width="180" height="60" as="geometry" />
        </mxCell>
        <mxCell id="Tb6W4LsNfKhpJKF0Waa3-12" style="edgeStyle=orthogonalEdgeStyle;rounded=0;orthogonalLoop=1;jettySize=auto;html=1;exitX=0;exitY=0.5;exitDx=0;exitDy=0;entryX=1;entryY=0.5;entryDx=0;entryDy=0;" edge="1" parent="1" source="7eC2LCejFtEysqXEd_CO-59" target="Tb6W4LsNfKhpJKF0Waa3-9">
          <mxGeometry relative="1" as="geometry">
            <Array as="points">
              <mxPoint x="720" y="210" />
              <mxPoint x="720" y="-340" />
            </Array>
          </mxGeometry>
        </mxCell>
        <mxCell id="7eC2LCejFtEysqXEd_CO-59" value="Интерфейсы" style="rounded=0;whiteSpace=wrap;html=1;fillColor=#dae8fc;strokeColor=#6c8ebf;" parent="1" vertex="1">
          <mxGeometry x="910" y="180" width="180" height="60" as="geometry" />
        </mxCell>
        <mxCell id="7eC2LCejFtEysqXEd_CO-69" value="Составляющие" style="text;html=1;align=center;verticalAlign=middle;resizable=0;points=[];autosize=1;strokeColor=none;fillColor=none;rotation=0;rounded=0;" parent="1" vertex="1">
          <mxGeometry x="620" y="155" width="110" height="30" as="geometry" />
        </mxCell>
        <mxCell id="Tb6W4LsNfKhpJKF0Waa3-19" style="edgeStyle=orthogonalEdgeStyle;rounded=0;orthogonalLoop=1;jettySize=auto;html=1;exitX=1;exitY=0.5;exitDx=0;exitDy=0;entryX=1;entryY=0.5;entryDx=0;entryDy=0;" edge="1" parent="1" source="7eC2LCejFtEysqXEd_CO-70" target="Tb6W4LsNfKhpJKF0Waa3-16">
          <mxGeometry relative="1" as="geometry" />
        </mxCell>
        <mxCell id="7eC2LCejFtEysqXEd_CO-70" value="Независимость от фреймворков" style="rounded=0;whiteSpace=wrap;html=1;fillColor=#d5e8d4;strokeColor=#82b366;" parent="1" vertex="1">
          <mxGeometry x="940" y="280" width="180" height="60" as="geometry" />
        </mxCell>
        <mxCell id="SSHobprJxzw41ajvplGZ-16" style="edgeStyle=orthogonalEdgeStyle;rounded=0;orthogonalLoop=1;jettySize=auto;html=1;exitX=1;exitY=0.5;exitDx=0;exitDy=0;entryX=0;entryY=0.5;entryDx=0;entryDy=0;" parent="1" source="7eC2LCejFtEysqXEd_CO-71" target="SSHobprJxzw41ajvplGZ-15" edge="1">
          <mxGeometry relative="1" as="geometry" />
        </mxCell>
        <mxCell id="Tb6W4LsNfKhpJKF0Waa3-22" style="edgeStyle=orthogonalEdgeStyle;rounded=0;orthogonalLoop=1;jettySize=auto;html=1;exitX=1;exitY=0.5;exitDx=0;exitDy=0;entryX=1;entryY=0.5;entryDx=0;entryDy=0;" edge="1" parent="1" source="7eC2LCejFtEysqXEd_CO-71" target="Tb6W4LsNfKhpJKF0Waa3-20">
          <mxGeometry relative="1" as="geometry" />
        </mxCell>
        <mxCell id="7eC2LCejFtEysqXEd_CO-71" value="Лёгкость тестирования" style="rounded=0;whiteSpace=wrap;html=1;fillColor=#d5e8d4;strokeColor=#82b366;" parent="1" vertex="1">
          <mxGeometry x="940" y="355" width="180" height="60" as="geometry" />
        </mxCell>
        <mxCell id="SSHobprJxzw41ajvplGZ-17" style="edgeStyle=orthogonalEdgeStyle;rounded=0;orthogonalLoop=1;jettySize=auto;html=1;exitX=1;exitY=0.5;exitDx=0;exitDy=0;entryX=0;entryY=0.5;entryDx=0;entryDy=0;" parent="1" source="7eC2LCejFtEysqXEd_CO-72" target="SSHobprJxzw41ajvplGZ-15" edge="1">
          <mxGeometry relative="1" as="geometry" />
        </mxCell>
        <mxCell id="Tb6W4LsNfKhpJKF0Waa3-27" style="edgeStyle=orthogonalEdgeStyle;rounded=0;orthogonalLoop=1;jettySize=auto;html=1;exitX=1;exitY=0.5;exitDx=0;exitDy=0;entryX=1;entryY=0.5;entryDx=0;entryDy=0;" edge="1" parent="1" source="7eC2LCejFtEysqXEd_CO-72" target="Tb6W4LsNfKhpJKF0Waa3-23">
          <mxGeometry relative="1" as="geometry" />
        </mxCell>
        <mxCell id="7eC2LCejFtEysqXEd_CO-72" value="Лёгкость изменений" style="rounded=0;whiteSpace=wrap;html=1;fillColor=#d5e8d4;strokeColor=#82b366;" parent="1" vertex="1">
          <mxGeometry x="940" y="435" width="180" height="60" as="geometry" />
        </mxCell>
        <mxCell id="7eC2LCejFtEysqXEd_CO-76" value="Для чего нужен" style="text;html=1;align=center;verticalAlign=middle;resizable=0;points=[];autosize=1;strokeColor=none;fillColor=none;rotation=0;rounded=0;" parent="1" vertex="1">
          <mxGeometry x="610" y="280" width="110" height="30" as="geometry" />
        </mxCell>
        <mxCell id="SSHobprJxzw41ajvplGZ-21" style="edgeStyle=orthogonalEdgeStyle;rounded=0;orthogonalLoop=1;jettySize=auto;html=1;exitX=0.5;exitY=1;exitDx=0;exitDy=0;entryX=1;entryY=0.5;entryDx=0;entryDy=0;" parent="1" source="7eC2LCejFtEysqXEd_CO-77" target="SSHobprJxzw41ajvplGZ-19" edge="1">
          <mxGeometry relative="1" as="geometry" />
        </mxCell>
        <mxCell id="7eC2LCejFtEysqXEd_CO-77" value="Большие корпоративные системы" style="rounded=0;whiteSpace=wrap;html=1;fillColor=#fff2cc;strokeColor=#d6b656;" parent="1" vertex="1">
          <mxGeometry x="715" y="655" width="180" height="60" as="geometry" />
        </mxCell>
        <mxCell id="7eC2LCejFtEysqXEd_CO-78" value="REST API" style="rounded=0;whiteSpace=wrap;html=1;fillColor=#fff2cc;strokeColor=#d6b656;" parent="1" vertex="1">
          <mxGeometry x="810" y="580" width="180" height="60" as="geometry" />
        </mxCell>
        <mxCell id="SSHobprJxzw41ajvplGZ-25" style="edgeStyle=orthogonalEdgeStyle;rounded=0;orthogonalLoop=1;jettySize=auto;html=1;exitX=0;exitY=0.5;exitDx=0;exitDy=0;entryX=1;entryY=0.5;entryDx=0;entryDy=0;" parent="1" source="7eC2LCejFtEysqXEd_CO-79" target="SSHobprJxzw41ajvplGZ-23" edge="1">
          <mxGeometry relative="1" as="geometry" />
        </mxCell>
        <mxCell id="7eC2LCejFtEysqXEd_CO-79" value="Многоуровневые приложения" style="rounded=0;whiteSpace=wrap;html=1;fillColor=#fff2cc;strokeColor=#d6b656;" parent="1" vertex="1">
          <mxGeometry x="610" y="580" width="180" height="60" as="geometry" />
        </mxCell>
        <mxCell id="7eC2LCejFtEysqXEd_CO-83" value="Примеры применения" style="text;html=1;align=center;verticalAlign=middle;resizable=0;points=[];autosize=1;strokeColor=none;fillColor=none;rounded=0;" parent="1" vertex="1">
          <mxGeometry x="550" y="510" width="150" height="30" as="geometry" />
        </mxCell>
        <mxCell id="7eC2LCejFtEysqXEd_CO-84" value="Управление зависимостями" style="rounded=0;whiteSpace=wrap;html=1;fillColor=#ffe6cc;strokeColor=#d79b00;" parent="1" vertex="1">
          <mxGeometry x="280" y="310" width="180" height="60" as="geometry" />
        </mxCell>
        <mxCell id="7eC2LCejFtEysqXEd_CO-85" value="Защита логики" style="rounded=0;whiteSpace=wrap;html=1;fillColor=#ffe6cc;strokeColor=#d79b00;" parent="1" vertex="1">
          <mxGeometry x="280" y="390" width="180" height="60" as="geometry" />
        </mxCell>
        <mxCell id="7eC2LCejFtEysqXEd_CO-86" value="Обеспечение масштабируемости" style="rounded=0;whiteSpace=wrap;html=1;fillColor=#ffe6cc;strokeColor=#d79b00;" parent="1" vertex="1">
          <mxGeometry x="280" y="470" width="180" height="60" as="geometry" />
        </mxCell>
        <mxCell id="7eC2LCejFtEysqXEd_CO-91" value="Основные задачи" style="text;html=1;align=center;verticalAlign=middle;resizable=0;points=[];autosize=1;strokeColor=none;fillColor=none;rounded=0;" parent="1" vertex="1">
          <mxGeometry x="370" y="250" width="120" height="30" as="geometry" />
        </mxCell>
        <mxCell id="SSHobprJxzw41ajvplGZ-1" value="Простота управления" style="rounded=0;whiteSpace=wrap;html=1;fillColor=#e1d5e7;strokeColor=#9673a6;" parent="1" vertex="1">
          <mxGeometry x="-650" y="-20" width="180" height="60" as="geometry" />
        </mxCell>
        <mxCell id="SSHobprJxzw41ajvplGZ-5" value="Для чего" style="text;html=1;align=center;verticalAlign=middle;resizable=0;points=[];autosize=1;strokeColor=none;fillColor=none;rounded=0;" parent="1" vertex="1">
          <mxGeometry x="-448" y="-20" width="70" height="30" as="geometry" />
        </mxCell>
        <mxCell id="SSHobprJxzw41ajvplGZ-6" value="Высокая безопасность проекта" style="rounded=0;whiteSpace=wrap;html=1;fillColor=#e1d5e7;strokeColor=#9673a6;" parent="1" vertex="1">
          <mxGeometry x="-650" y="190" width="180" height="60" as="geometry" />
        </mxCell>
        <mxCell id="SSHobprJxzw41ajvplGZ-9" value="Для чего" style="text;html=1;align=center;verticalAlign=middle;resizable=0;points=[];autosize=1;strokeColor=none;fillColor=none;rounded=0;" parent="1" vertex="1">
          <mxGeometry x="-460" y="190" width="70" height="30" as="geometry" />
        </mxCell>
        <mxCell id="SSHobprJxzw41ajvplGZ-11" value="Полный контроль" style="rounded=0;whiteSpace=wrap;html=1;fillColor=#eeeeee;strokeColor=#36393d;" parent="1" vertex="1">
          <mxGeometry x="1260" y="-60" width="180" height="60" as="geometry" />
        </mxCell>
        <mxCell id="SSHobprJxzw41ajvplGZ-14" value="В чём смысл" style="text;html=1;align=center;verticalAlign=middle;resizable=0;points=[];autosize=1;strokeColor=none;fillColor=none;rounded=0;" parent="1" vertex="1">
          <mxGeometry x="1130" y="-60" width="100" height="30" as="geometry" />
        </mxCell>
        <mxCell id="SSHobprJxzw41ajvplGZ-15" value="Простота расширения" style="rounded=0;whiteSpace=wrap;html=1;fillColor=#e1d5e7;strokeColor=#9673a6;" parent="1" vertex="1">
          <mxGeometry x="1240" y="355" width="180" height="60" as="geometry" />
        </mxCell>
        <mxCell id="SSHobprJxzw41ajvplGZ-18" value="Для чего" style="text;html=1;align=center;verticalAlign=middle;resizable=0;points=[];autosize=1;strokeColor=none;fillColor=none;rounded=0;" parent="1" vertex="1">
          <mxGeometry x="1145" y="355" width="70" height="30" as="geometry" />
        </mxCell>
        <mxCell id="SSHobprJxzw41ajvplGZ-19" value="Критически важные проекты" style="rounded=0;whiteSpace=wrap;html=1;fillColor=#f8cecc;strokeColor=#b85450;" parent="1" vertex="1">
          <mxGeometry x="284" y="737.5" width="180" height="60" as="geometry" />
        </mxCell>
        <mxCell id="SSHobprJxzw41ajvplGZ-22" value="Сфера применения" style="text;html=1;align=center;verticalAlign=middle;resizable=0;points=[];autosize=1;strokeColor=none;fillColor=none;rounded=0;" parent="1" vertex="1">
          <mxGeometry x="309" y="700" width="130" height="30" as="geometry" />
        </mxCell>
        <mxCell id="SSHobprJxzw41ajvplGZ-23" value="Защита данных" style="rounded=0;whiteSpace=wrap;html=1;fillColor=#f8cecc;strokeColor=#b85450;" parent="1" vertex="1">
          <mxGeometry x="280" y="620" width="180" height="60" as="geometry" />
        </mxCell>
        <mxCell id="SSHobprJxzw41ajvplGZ-26" value="Основное отличие" style="text;html=1;align=center;verticalAlign=middle;resizable=0;points=[];autosize=1;strokeColor=none;fillColor=none;rounded=0;" parent="1" vertex="1">
          <mxGeometry x="305" y="590" width="130" height="30" as="geometry" />
        </mxCell>
        <mxCell id="Tb6W4LsNfKhpJKF0Waa3-1" value="Выполнение ключевых функций" style="rounded=0;whiteSpace=wrap;html=1;fillColor=#eeeeee;strokeColor=#36393d;" vertex="1" parent="1">
          <mxGeometry x="280" y="-170" width="180" height="60" as="geometry" />
        </mxCell>
        <mxCell id="Tb6W4LsNfKhpJKF0Waa3-5" value="Что такое?" style="text;html=1;align=center;verticalAlign=middle;resizable=0;points=[];autosize=1;strokeColor=none;fillColor=none;rounded=0;" vertex="1" parent="1">
          <mxGeometry x="330" y="-90" width="80" height="30" as="geometry" />
        </mxCell>
        <mxCell id="Tb6W4LsNfKhpJKF0Waa3-6" value="Валидаторы, фильтры" style="rounded=0;whiteSpace=wrap;html=1;fillColor=#eeeeee;strokeColor=#36393d;" vertex="1" parent="1">
          <mxGeometry x="280" y="-270" width="180" height="60" as="geometry" />
        </mxCell>
        <mxCell id="Tb6W4LsNfKhpJKF0Waa3-9" value="Связующий компонент между внешними системами и внутренней логикой" style="rounded=0;whiteSpace=wrap;html=1;fillColor=#eeeeee;strokeColor=#36393d;" vertex="1" parent="1">
          <mxGeometry x="280" y="-370" width="180" height="60" as="geometry" />
        </mxCell>
        <mxCell id="Tb6W4LsNfKhpJKF0Waa3-13" value="Взаимодействие с внешними системами" style="rounded=0;whiteSpace=wrap;html=1;fillColor=#eeeeee;strokeColor=#36393d;" vertex="1" parent="1">
          <mxGeometry x="750" y="-370" width="180" height="60" as="geometry" />
        </mxCell>
        <mxCell id="Tb6W4LsNfKhpJKF0Waa3-14" value="Что такое?" style="text;html=1;align=center;verticalAlign=middle;resizable=0;points=[];autosize=1;strokeColor=none;fillColor=none;rounded=0;" vertex="1" parent="1">
          <mxGeometry x="855" y="-300" width="80" height="30" as="geometry" />
        </mxCell>
        <mxCell id="Tb6W4LsNfKhpJKF0Waa3-16" value="Ядро системы остаётся изолированным" style="rounded=0;whiteSpace=wrap;html=1;fillColor=#cce5ff;strokeColor=#36393d;" vertex="1" parent="1">
          <mxGeometry x="284" y="910" width="180" height="60" as="geometry" />
        </mxCell>
        <mxCell id="Tb6W4LsNfKhpJKF0Waa3-17" value="Чем помогает?" style="text;html=1;align=center;verticalAlign=middle;resizable=0;points=[];autosize=1;strokeColor=none;fillColor=none;rounded=0;" vertex="1" parent="1">
          <mxGeometry x="319" y="870" width="110" height="30" as="geometry" />
        </mxCell>
        <mxCell id="Tb6W4LsNfKhpJKF0Waa3-20" value="Уменьшение различных рисков" style="rounded=0;whiteSpace=wrap;html=1;fillColor=#cce5ff;strokeColor=#36393d;" vertex="1" parent="1">
          <mxGeometry x="284" y="990" width="180" height="60" as="geometry" />
        </mxCell>
        <mxCell id="Tb6W4LsNfKhpJKF0Waa3-23" value="Более предсказуемое поведение" style="rounded=0;whiteSpace=wrap;html=1;fillColor=#cce5ff;strokeColor=#36393d;" vertex="1" parent="1">
          <mxGeometry x="284" y="1070" width="180" height="60" as="geometry" />
        </mxCell>
      </root>
    </mxGraphModel>
  </diagram>
</mxfile>
